<?xml version="1.0" encoding="UTF-8" standalone="no"?>
<!DOCTYPE svg PUBLIC "-//W3C//DTD SVG 20010904//EN"
 "http://www.w3.org/TR/2001/REC-SVG-20010904/DTD/svg10.dtd">
<svg version="1.0" xmlns="http://www.w3.org/2000/svg"
 width="64.000000pt" height="64.000000pt" viewBox="0 0 64.000000 64.000000"
 preserveAspectRatio="xMidYMid meet">
    <g transform="translate(0.000000,64.000000) scale(0.100000,-0.100000)"
       fill="#000000" stroke="none">
        <path d="M130 629 c-37 -9 -64 -25 -95 -56 -55 -55 -68 -98 -64 -215 4 -108 13 -133 67 -188 55 -54 80 -63 188 -67 117 -4 160 9 215 64 55 55 68 98 64 215 -4 108 -13 133 -67 188 -55 54 -80 63 -188 67 -68 2 -133 -1 -120 8 -7 0 -38 -6 -70 -16z m290 -79 c22 -11 52 -41 65 -65 20 -39 22 -59 19 -156 -4 -123 -12 -145 -68 -195 -62 -54 -199 -54 -261 0 -56 50 -64 72 -68 195 -3 97 -1 117 19 156 21 42 41 62 84 84 42 21 62 24 156 19 94 -3 115 -1 156 -19z m-53 -153 c-13 -13 -24 -36 -24 -50 0 -14 11 -37 24 -50 15 -15 31 -22 50 -22 19 0 35 7 50 22 13 13 22 33 22 50 0 19 -7 35 -22 50 -15 13 -31 22 -50 22 -19 0 -35 -9 -50 -22z m134 -197 c17 -15 18 -28 18 -101 0 -74 -1 -85 -18 -98 -27 -20 -56 -20 -82 0 -17 14 -18 24 -18 101 0 74 1 85 18 98 26 19 55 19 82 0z"/>
    </g>
</svg>